# MagicaVoxel @ Ephtracy

# material
mtllib MainRoom_RightHall_HalfWall.mtl
usemtl palette

# normals
vn -1 0 0
vn 1 0 0
vn 0 0 1
vn 0 0 -1
vn 0 -1 0
vn 0 1 0

# texcoords
vt 0.720703 0.5
vt 0.927734 0.5
vt 0.931641 0.5
vt 0.935547 0.5
vt 0.943359 0.5
vt 0.951172 0.5
vt 0.955078 0.5
vt 0.958984 0.5
vt 0.970703 0.5
vt 0.974609 0.5
vt 0.978516 0.5
vt 0.982422 0.5
vt 0.994141 0.5

# verts
v -63 0 63
v -63 0 -55
v -63 0 -59
v -63 0 -63
v -63 3 -53
v -63 3 -54
v -63 3 -55
v -63 3 -56
v -63 4 63
v -63 4 -53
v -63 4 -54
v -63 4 -55
v -63 4 -56
v -63 4 -59
v -63 5 63
v -63 5 -59
v -63 10 -59
v -63 10 -60
v -63 10 -63
v -63 16 -60
v -63 16 -62
v -63 17 -60
v -63 17 -62
v -63 19 -60
v -63 19 -62
v -63 20 -60
v -63 20 -62
v -63 40 -59
v -63 40 -60
v -63 40 -63
v -63 41 -59
v -63 41 -60
v -63 41 -63
v -63 61 -59
v -63 61 -60
v -63 61 -63
v -63 62 -59
v -63 62 -60
v -63 62 -63
v -63 116 -55
v -63 116 -60
v -63 116 -63
v -63 117 -54
v -63 117 -55
v -63 120 -53
v -63 120 -54
v -63 122 -53
v -63 122 -54
v -63 125 -54
v -63 125 -55
v -63 126 -55
v -63 126 -63
v -49 116 -55
v -49 116 -60
v -49 117 -54
v -49 117 -55
v -49 117 -60
v -49 120 -54
v -49 120 -55
v -49 122 -54
v -49 122 -55
v -49 125 -54
v -49 125 -55
v -49 125 -62
v -49 125 -63
v -49 126 -55
v -49 126 -63
v -19 116 -56
v -19 116 -60
v -19 117 -54
v -19 117 -55
v -19 117 -56
v -19 117 -60
v -19 120 -54
v -19 120 -55
v -19 122 -54
v -19 122 -55
v -19 125 -54
v -19 125 -55
v -19 125 -62
v -19 125 -63
v -19 126 -55
v -19 126 -63
v -50 116 -55
v -50 116 -60
v -50 117 -54
v -50 117 -55
v -50 117 -60
v -50 120 -54
v -50 120 -55
v -50 122 -54
v -50 122 -55
v -50 125 -54
v -50 125 -55
v -50 125 -62
v -50 125 -63
v -50 126 -55
v -50 126 -63
v -20 116 -55
v -20 116 -60
v -20 117 -54
v -20 117 -55
v -20 117 -60
v -20 120 -54
v -20 120 -55
v -20 122 -54
v -20 122 -55
v -20 125 -54
v -20 125 -55
v -20 125 -62
v -20 125 -63
v -20 126 -55
v -20 126 -63
v 1 0 63
v 1 0 -59
v 1 0 -63
v 1 4 63
v 1 4 -59
v 1 5 63
v 1 5 -59
v 1 10 -59
v 1 10 -60
v 1 10 -63
v 1 16 -60
v 1 16 -62
v 1 17 -60
v 1 17 -62
v 1 19 -60
v 1 19 -62
v 1 20 -60
v 1 20 -62
v 1 40 -59
v 1 40 -60
v 1 40 -63
v 1 41 -59
v 1 41 -60
v 1 41 -63
v 1 61 -59
v 1 61 -60
v 1 61 -63
v 1 62 -59
v 1 62 -60
v 1 62 -63
v 1 116 -56
v 1 116 -60
v 1 116 -63
v 1 117 -54
v 1 117 -56
v 1 120 -53
v 1 120 -54
v 1 122 -53
v 1 122 -54
v 1 125 -54
v 1 125 -55
v 1 126 -55
v 1 126 -63
v -63 0 63
v -63 4 63
v -63 5 63
v -60 3 63
v -60 4 63
v -59 3 63
v -59 4 63
v -58 3 63
v -58 4 63
v -57 3 63
v -57 4 63
v -5 3 63
v -5 4 63
v -4 3 63
v -4 4 63
v -3 3 63
v -3 4 63
v -2 3 63
v -2 4 63
v 1 0 63
v 1 4 63
v 1 5 63
v -63 120 -53
v -63 122 -53
v 1 120 -53
v 1 122 -53
v -63 117 -54
v -63 120 -54
v -63 122 -54
v -63 125 -54
v -50 117 -54
v -50 120 -54
v -50 122 -54
v -50 125 -54
v -49 117 -54
v -49 120 -54
v -49 122 -54
v -49 125 -54
v -20 117 -54
v -20 120 -54
v -20 122 -54
v -20 125 -54
v -19 117 -54
v -19 120 -54
v -19 122 -54
v -19 125 -54
v 1 117 -54
v 1 120 -54
v 1 122 -54
v 1 125 -54
v -63 116 -55
v -63 117 -55
v -63 125 -55
v -63 126 -55
v -50 116 -55
v -50 117 -55
v -50 120 -55
v -50 122 -55
v -50 125 -55
v -50 126 -55
v -49 116 -55
v -49 117 -55
v -49 120 -55
v -49 122 -55
v -49 125 -55
v -49 126 -55
v -20 116 -55
v -20 117 -55
v -20 120 -55
v -20 122 -55
v -20 125 -55
v -20 126 -55
v -19 117 -55
v -19 120 -55
v -19 122 -55
v -19 125 -55
v -19 126 -55
v 1 125 -55
v 1 126 -55
v -19 116 -56
v -19 117 -56
v 0 117 -56
v 1 116 -56
v 1 117 -56
v -63 5 -59
v -63 10 -59
v -63 40 -59
v -63 41 -59
v -63 61 -59
v -63 62 -59
v 1 5 -59
v 1 10 -59
v 1 40 -59
v 1 41 -59
v 1 61 -59
v 1 62 -59
v -63 10 -60
v -63 16 -60
v -63 17 -60
v -63 19 -60
v -63 20 -60
v -63 40 -60
v -63 41 -60
v -63 61 -60
v -63 62 -60
v -63 116 -60
v -50 116 -60
v -50 117 -60
v -49 116 -60
v -49 117 -60
v -39 116 -60
v -29 116 -60
v -20 116 -60
v -20 117 -60
v -19 116 -60
v -19 117 -60
v 1 10 -60
v 1 16 -60
v 1 17 -60
v 1 19 -60
v 1 20 -60
v 1 40 -60
v 1 41 -60
v 1 61 -60
v 1 62 -60
v 1 116 -60
v -63 16 -62
v -63 17 -62
v -63 19 -62
v -63 20 -62
v 1 16 -62
v 1 17 -62
v 1 19 -62
v 1 20 -62
v -50 120 -54
v -50 122 -54
v -49 120 -54
v -49 122 -54
v -20 120 -54
v -20 122 -54
v -19 120 -54
v -19 122 -54
v -63 0 -63
v -63 10 -63
v -63 40 -63
v -63 41 -63
v -63 61 -63
v -63 62 -63
v -63 116 -63
v -63 126 -63
v -50 125 -63
v -50 126 -63
v -49 125 -63
v -49 126 -63
v -20 125 -63
v -20 126 -63
v -19 125 -63
v -19 126 -63
v 1 0 -63
v 1 10 -63
v 1 40 -63
v 1 41 -63
v 1 61 -63
v 1 62 -63
v 1 116 -63
v 1 126 -63
v -63 0 63
v 1 0 63
v -62 0 62
v 0 0 62
v -63 0 -55
v -62 0 -55
v -3 0 -55
v -2 0 -55
v 0 0 -55
v -63 0 -59
v -62 0 -59
v -3 0 -59
v -2 0 -59
v 0 0 -59
v 1 0 -59
v -62 0 -62
v 0 0 -62
v -63 0 -63
v 1 0 -63
v -63 17 -60
v 1 17 -60
v -63 17 -62
v 1 17 -62
v -63 20 -60
v 1 20 -60
v -63 20 -62
v 1 20 -62
v -63 40 -59
v 1 40 -59
v -63 40 -60
v 1 40 -60
v -63 61 -59
v 1 61 -59
v -63 61 -60
v 1 61 -60
v -63 116 -55
v -50 116 -55
v -49 116 -55
v -20 116 -55
v -38 116 -56
v -30 116 -56
v -19 116 -56
v 1 116 -56
v -39 116 -58
v -38 116 -58
v -30 116 -58
v -29 116 -58
v -63 116 -60
v -50 116 -60
v -49 116 -60
v -39 116 -60
v -29 116 -60
v -20 116 -60
v -19 116 -60
v 1 116 -60
v -63 117 -54
v -50 117 -54
v -49 117 -54
v -20 117 -54
v -19 117 -54
v 1 117 -54
v -63 117 -55
v -50 117 -55
v -49 117 -55
v -20 117 -55
v -19 117 -55
v 0 117 -55
v -19 117 -56
v 0 117 -56
v 1 117 -56
v -50 117 -60
v -49 117 -60
v -20 117 -60
v -19 117 -60
v -63 120 -53
v 1 120 -53
v -63 120 -54
v -50 120 -54
v -49 120 -54
v -20 120 -54
v -19 120 -54
v 1 120 -54
v -63 5 63
v 1 5 63
v -63 5 -59
v 1 5 -59
v -63 10 -59
v 1 10 -59
v -63 10 -60
v 1 10 -60
v -63 16 -60
v 1 16 -60
v -63 16 -62
v 1 16 -62
v -63 19 -60
v 1 19 -60
v -63 19 -62
v 1 19 -62
v -63 41 -59
v 1 41 -59
v -63 41 -60
v 1 41 -60
v -63 62 -59
v 1 62 -59
v -63 62 -60
v 1 62 -60
v -63 122 -53
v 1 122 -53
v -63 122 -54
v -50 122 -54
v -49 122 -54
v -20 122 -54
v -19 122 -54
v 1 122 -54
v -63 125 -54
v -50 125 -54
v -49 125 -54
v -20 125 -54
v -19 125 -54
v 1 125 -54
v -63 125 -55
v -50 125 -55
v -49 125 -55
v -20 125 -55
v -19 125 -55
v 1 125 -55
v -50 125 -62
v -49 125 -62
v -20 125 -62
v -19 125 -62
v -50 125 -63
v -49 125 -63
v -20 125 -63
v -19 125 -63
v -63 126 -55
v -50 126 -55
v -49 126 -55
v -20 126 -55
v -19 126 -55
v 1 126 -55
v -63 126 -63
v -50 126 -63
v -49 126 -63
v -20 126 -63
v -19 126 -63
v 1 126 -63

# faces
f 5/3/1 2/3/1 1/3/1
f 6/3/1 2/3/1 5/3/1
f 7/1/1 3/1/1 2/1/1
f 7/3/1 2/3/1 6/3/1
f 8/1/1 3/1/1 7/1/1
f 9/3/1 5/3/1 1/3/1
f 10/4/1 6/4/1 5/4/1
f 10/3/1 5/3/1 9/3/1
f 11/3/1 7/3/1 6/3/1
f 11/4/1 6/4/1 10/4/1
f 12/4/1 8/4/1 7/4/1
f 12/3/1 7/3/1 11/3/1
f 13/1/1 3/1/1 8/1/1
f 13/4/1 8/4/1 12/4/1
f 14/7/1 4/7/1 3/7/1
f 14/1/1 3/1/1 13/1/1
f 15/6/1 13/6/1 12/6/1
f 15/6/1 12/6/1 11/6/1
f 15/6/1 14/6/1 13/6/1
f 15/6/1 11/6/1 10/6/1
f 15/6/1 10/6/1 9/6/1
f 16/7/1 4/7/1 14/7/1
f 16/6/1 14/6/1 15/6/1
f 17/7/1 4/7/1 16/7/1
f 18/7/1 4/7/1 17/7/1
f 19/7/1 4/7/1 18/7/1
f 20/10/1 19/10/1 18/10/1
f 21/10/1 19/10/1 20/10/1
f 23/10/1 19/10/1 21/10/1
f 24/9/1 23/9/1 22/9/1
f 25/10/1 19/10/1 23/10/1
f 25/9/1 23/9/1 24/9/1
f 27/10/1 19/10/1 25/10/1
f 29/10/1 27/10/1 26/10/1
f 30/10/1 19/10/1 27/10/1
f 30/10/1 27/10/1 29/10/1
f 31/5/1 29/5/1 28/5/1
f 31/5/1 30/5/1 29/5/1
f 32/5/1 30/5/1 31/5/1
f 33/5/1 30/5/1 32/5/1
f 35/10/1 33/10/1 32/10/1
f 36/10/1 33/10/1 35/10/1
f 37/12/1 35/12/1 34/12/1
f 37/12/1 36/12/1 35/12/1
f 38/12/1 36/12/1 37/12/1
f 39/12/1 36/12/1 38/12/1
f 41/10/1 39/10/1 38/10/1
f 42/10/1 39/10/1 41/10/1
f 44/8/1 41/8/1 40/8/1
f 44/8/1 42/8/1 41/8/1
f 46/8/1 44/8/1 43/8/1
f 47/8/1 46/8/1 45/8/1
f 48/8/1 44/8/1 46/8/1
f 48/8/1 46/8/1 47/8/1
f 49/8/1 44/8/1 48/8/1
f 50/8/1 42/8/1 44/8/1
f 50/8/1 44/8/1 49/8/1
f 51/8/1 42/8/1 50/8/1
f 52/8/1 42/8/1 51/8/1
f 56/8/1 54/8/1 53/8/1
f 57/8/1 54/8/1 56/8/1
f 58/8/1 56/8/1 55/8/1
f 59/8/1 56/8/1 58/8/1
f 60/1/1 59/1/1 58/1/1
f 61/1/1 59/1/1 60/1/1
f 62/8/1 61/8/1 60/8/1
f 63/8/1 61/8/1 62/8/1
f 66/8/1 65/8/1 64/8/1
f 66/8/1 64/8/1 63/8/1
f 67/8/1 65/8/1 66/8/1
f 72/8/1 69/8/1 68/8/1
f 73/8/1 69/8/1 72/8/1
f 74/8/1 71/8/1 70/8/1
f 75/8/1 71/8/1 74/8/1
f 76/1/1 75/1/1 74/1/1
f 77/1/1 75/1/1 76/1/1
f 78/8/1 77/8/1 76/8/1
f 79/8/1 77/8/1 78/8/1
f 82/8/1 81/8/1 80/8/1
f 82/8/1 80/8/1 79/8/1
f 83/8/1 81/8/1 82/8/1
f 84/8/2 85/8/2 87/8/2
f 87/8/2 85/8/2 88/8/2
f 86/8/2 87/8/2 89/8/2
f 89/8/2 87/8/2 90/8/2
f 89/1/2 90/1/2 91/1/2
f 91/1/2 90/1/2 92/1/2
f 91/8/2 92/8/2 93/8/2
f 93/8/2 92/8/2 94/8/2
f 95/8/2 96/8/2 97/8/2
f 94/8/2 95/8/2 97/8/2
f 97/8/2 96/8/2 98/8/2
f 99/8/2 100/8/2 102/8/2
f 102/8/2 100/8/2 103/8/2
f 101/8/2 102/8/2 104/8/2
f 104/8/2 102/8/2 105/8/2
f 104/1/2 105/1/2 106/1/2
f 106/1/2 105/1/2 107/1/2
f 106/8/2 107/8/2 108/8/2
f 108/8/2 107/8/2 109/8/2
f 110/8/2 111/8/2 112/8/2
f 109/8/2 110/8/2 112/8/2
f 112/8/2 111/8/2 113/8/2
f 114/3/2 115/3/2 117/3/2
f 115/7/2 116/7/2 118/7/2
f 117/3/2 115/3/2 118/3/2
f 117/6/2 118/6/2 119/6/2
f 118/7/2 116/7/2 120/7/2
f 119/6/2 118/6/2 120/6/2
f 120/7/2 116/7/2 121/7/2
f 121/7/2 116/7/2 122/7/2
f 122/7/2 116/7/2 123/7/2
f 122/10/2 123/10/2 124/10/2
f 124/10/2 123/10/2 125/10/2
f 125/10/2 123/10/2 127/10/2
f 126/9/2 127/9/2 128/9/2
f 127/10/2 123/10/2 129/10/2
f 128/9/2 127/9/2 129/9/2
f 129/10/2 123/10/2 131/10/2
f 130/10/2 131/10/2 133/10/2
f 131/10/2 123/10/2 134/10/2
f 133/10/2 131/10/2 134/10/2
f 132/5/2 133/5/2 135/5/2
f 133/5/2 134/5/2 135/5/2
f 135/5/2 134/5/2 136/5/2
f 136/5/2 134/5/2 137/5/2
f 136/10/2 137/10/2 139/10/2
f 139/10/2 137/10/2 140/10/2
f 138/12/2 139/12/2 141/12/2
f 139/12/2 140/12/2 141/12/2
f 141/12/2 140/12/2 142/12/2
f 142/12/2 140/12/2 143/12/2
f 142/10/2 143/10/2 145/10/2
f 145/10/2 143/10/2 146/10/2
f 144/8/2 145/8/2 148/8/2
f 145/8/2 146/8/2 148/8/2
f 147/8/2 148/8/2 150/8/2
f 149/8/2 150/8/2 151/8/2
f 150/8/2 148/8/2 152/8/2
f 151/8/2 150/8/2 152/8/2
f 152/8/2 148/8/2 153/8/2
f 153/8/2 148/8/2 154/8/2
f 154/8/2 148/8/2 155/8/2
f 148/8/2 146/8/2 156/8/2
f 155/8/2 148/8/2 156/8/2
f 160/3/3 158/3/3 157/3/3
f 161/6/3 159/6/3 158/6/3
f 161/3/3 158/3/3 160/3/3
f 162/3/3 160/3/3 157/3/3
f 162/4/3 161/4/3 160/4/3
f 163/6/3 159/6/3 161/6/3
f 163/4/3 161/4/3 162/4/3
f 164/3/3 162/3/3 157/3/3
f 164/3/3 163/3/3 162/3/3
f 165/6/3 159/6/3 163/6/3
f 165/3/3 163/3/3 164/3/3
f 166/3/3 164/3/3 157/3/3
f 166/4/3 165/4/3 164/4/3
f 167/6/3 159/6/3 165/6/3
f 167/4/3 165/4/3 166/4/3
f 168/3/3 166/3/3 157/3/3
f 168/3/3 167/3/3 166/3/3
f 169/6/3 159/6/3 167/6/3
f 169/3/3 167/3/3 168/3/3
f 170/3/3 168/3/3 157/3/3
f 170/4/3 169/4/3 168/4/3
f 171/6/3 159/6/3 169/6/3
f 171/4/3 169/4/3 170/4/3
f 172/3/3 170/3/3 157/3/3
f 172/3/3 171/3/3 170/3/3
f 173/6/3 159/6/3 171/6/3
f 173/3/3 171/3/3 172/3/3
f 174/3/3 172/3/3 157/3/3
f 174/4/3 173/4/3 172/4/3
f 175/6/3 159/6/3 173/6/3
f 175/4/3 173/4/3 174/4/3
f 176/3/3 174/3/3 157/3/3
f 176/3/3 175/3/3 174/3/3
f 177/6/3 159/6/3 175/6/3
f 177/3/3 175/3/3 176/3/3
f 178/6/3 159/6/3 177/6/3
f 181/8/3 180/8/3 179/8/3
f 182/8/3 180/8/3 181/8/3
f 187/8/3 184/8/3 183/8/3
f 188/8/3 184/8/3 187/8/3
f 189/8/3 186/8/3 185/8/3
f 190/8/3 186/8/3 189/8/3
f 195/8/3 192/8/3 191/8/3
f 196/8/3 192/8/3 195/8/3
f 197/8/3 194/8/3 193/8/3
f 198/8/3 194/8/3 197/8/3
f 203/8/3 200/8/3 199/8/3
f 204/8/3 200/8/3 203/8/3
f 205/8/3 202/8/3 201/8/3
f 206/8/3 202/8/3 205/8/3
f 211/8/3 208/8/3 207/8/3
f 212/8/3 208/8/3 211/8/3
f 215/8/3 210/8/3 209/8/3
f 216/8/3 210/8/3 215/8/3
f 218/13/3 214/13/3 213/13/3
f 218/13/3 215/13/3 214/13/3
f 218/13/3 213/13/3 212/13/3
f 219/13/3 215/13/3 218/13/3
f 220/13/3 215/13/3 219/13/3
f 221/13/3 215/13/3 220/13/3
f 223/8/3 218/8/3 217/8/3
f 224/8/3 218/8/3 223/8/3
f 227/8/3 222/8/3 221/8/3
f 228/8/3 222/8/3 227/8/3
f 229/13/3 226/13/3 225/13/3
f 229/13/3 227/13/3 226/13/3
f 229/13/3 225/13/3 224/13/3
f 230/13/3 227/13/3 229/13/3
f 231/13/3 227/13/3 230/13/3
f 232/13/3 227/13/3 231/13/3
f 234/8/3 233/8/3 232/8/3
f 235/8/3 233/8/3 234/8/3
f 238/8/3 237/8/3 236/8/3
f 239/8/3 238/8/3 236/8/3
f 240/8/3 238/8/3 239/8/3
f 247/7/3 242/7/3 241/7/3
f 248/7/3 242/7/3 247/7/3
f 249/5/3 244/5/3 243/5/3
f 250/5/3 244/5/3 249/5/3
f 251/12/3 246/12/3 245/12/3
f 252/12/3 246/12/3 251/12/3
f 263/10/3 262/10/3 261/10/3
f 265/10/3 263/10/3 261/10/3
f 265/10/3 264/10/3 263/10/3
f 266/10/3 264/10/3 265/10/3
f 267/10/3 265/10/3 261/10/3
f 268/10/3 267/10/3 261/10/3
f 269/10/3 268/10/3 261/10/3
f 271/10/3 269/10/3 261/10/3
f 271/10/3 270/10/3 269/10/3
f 272/10/3 270/10/3 271/10/3
f 273/10/3 254/10/3 253/10/3
f 274/10/3 254/10/3 273/10/3
f 275/9/3 256/9/3 255/9/3
f 276/9/3 256/9/3 275/9/3
f 277/10/3 258/10/3 257/10/3
f 278/10/3 258/10/3 277/10/3
f 279/10/3 260/10/3 259/10/3
f 280/10/3 260/10/3 279/10/3
f 281/10/3 271/10/3 261/10/3
f 282/10/3 271/10/3 281/10/3
f 287/10/3 284/10/3 283/10/3
f 288/10/3 284/10/3 287/10/3
f 289/10/3 286/10/3 285/10/3
f 290/10/3 286/10/3 289/10/3
f 291/8/4 292/8/4 293/8/4
f 293/8/4 292/8/4 294/8/4
f 295/8/4 296/8/4 297/8/4
f 297/8/4 296/8/4 298/8/4
f 305/8/4 306/8/4 307/8/4
f 307/8/4 306/8/4 308/8/4
f 305/8/4 307/8/4 309/8/4
f 305/8/4 309/8/4 311/8/4
f 309/8/4 310/8/4 311/8/4
f 311/8/4 310/8/4 312/8/4
f 305/8/4 311/8/4 313/8/4
f 299/7/4 300/7/4 315/7/4
f 300/10/4 301/10/4 316/10/4
f 315/7/4 300/7/4 316/7/4
f 301/5/4 302/5/4 317/5/4
f 316/10/4 301/10/4 317/10/4
f 302/10/4 303/10/4 318/10/4
f 317/5/4 302/5/4 318/5/4
f 303/12/4 304/12/4 319/12/4
f 318/10/4 303/10/4 319/10/4
f 304/10/4 305/10/4 320/10/4
f 319/12/4 304/12/4 320/12/4
f 313/8/4 314/8/4 321/8/4
f 320/10/4 305/10/4 321/10/4
f 305/8/4 313/8/4 321/8/4
f 321/8/4 314/8/4 322/8/4
f 325/3/5 324/3/5 323/3/5
f 326/3/5 324/3/5 325/3/5
f 327/3/5 325/3/5 323/3/5
f 328/2/5 326/2/5 325/2/5
f 328/3/5 325/3/5 327/3/5
f 329/2/5 326/2/5 328/2/5
f 330/2/5 326/2/5 329/2/5
f 331/3/5 324/3/5 326/3/5
f 331/2/5 326/2/5 330/2/5
f 332/1/5 328/1/5 327/1/5
f 332/1/5 329/1/5 328/1/5
f 333/1/5 329/1/5 332/1/5
f 334/2/5 330/2/5 329/2/5
f 334/1/5 329/1/5 333/1/5
f 335/6/5 331/6/5 330/6/5
f 335/2/5 330/2/5 334/2/5
f 336/3/5 324/3/5 331/3/5
f 336/6/5 331/6/5 335/6/5
f 337/3/5 324/3/5 336/3/5
f 338/7/5 333/7/5 332/7/5
f 338/1/5 335/1/5 334/1/5
f 338/1/5 334/1/5 333/1/5
f 338/1/5 336/1/5 335/1/5
f 339/7/5 337/7/5 336/7/5
f 339/1/5 336/1/5 338/1/5
f 340/7/5 338/7/5 332/7/5
f 340/7/5 339/7/5 338/7/5
f 341/7/5 337/7/5 339/7/5
f 341/7/5 339/7/5 340/7/5
f 344/9/5 343/9/5 342/9/5
f 345/9/5 343/9/5 344/9/5
f 348/10/5 347/10/5 346/10/5
f 349/10/5 347/10/5 348/10/5
f 352/5/5 351/5/5 350/5/5
f 353/5/5 351/5/5 352/5/5
f 356/12/5 355/12/5 354/12/5
f 357/12/5 355/12/5 356/12/5
f 362/8/5 361/8/5 360/8/5
f 363/8/5 361/8/5 362/8/5
f 366/8/5 362/8/5 360/8/5
f 367/1/5 363/1/5 362/1/5
f 367/8/5 362/8/5 366/8/5
f 368/8/5 361/8/5 363/8/5
f 368/1/5 363/1/5 367/1/5
f 369/8/5 361/8/5 368/8/5
f 370/8/5 359/8/5 358/8/5
f 371/8/5 359/8/5 370/8/5
f 372/8/5 366/8/5 360/8/5
f 373/1/5 367/1/5 366/1/5
f 373/8/5 366/8/5 372/8/5
f 373/1/5 368/1/5 367/1/5
f 373/1/5 369/1/5 368/1/5
f 374/8/5 361/8/5 369/8/5
f 374/1/5 369/1/5 373/1/5
f 375/8/5 361/8/5 374/8/5
f 376/8/5 365/8/5 364/8/5
f 377/8/5 365/8/5 376/8/5
f 384/8/5 379/8/5 378/8/5
f 385/8/5 379/8/5 384/8/5
f 386/8/5 381/8/5 380/8/5
f 387/8/5 381/8/5 386/8/5
f 388/8/5 383/8/5 382/8/5
f 389/8/5 383/8/5 388/8/5
f 390/1/5 389/1/5 388/1/5
f 390/13/5 388/13/5 387/13/5
f 391/8/5 383/8/5 389/8/5
f 391/1/5 389/1/5 390/1/5
f 392/8/5 383/8/5 391/8/5
f 393/13/5 386/13/5 385/13/5
f 394/13/5 386/13/5 393/13/5
f 395/13/5 390/13/5 387/13/5
f 396/13/5 390/13/5 395/13/5
f 399/8/5 398/8/5 397/8/5
f 400/8/5 398/8/5 399/8/5
f 401/8/5 398/8/5 400/8/5
f 402/8/5 398/8/5 401/8/5
f 403/8/5 398/8/5 402/8/5
f 404/8/5 398/8/5 403/8/5
f 405/6/6 406/6/6 407/6/6
f 407/6/6 406/6/6 408/6/6
f 409/7/6 410/7/6 411/7/6
f 411/7/6 410/7/6 412/7/6
f 413/10/6 414/10/6 415/10/6
f 415/10/6 414/10/6 416/10/6
f 417/9/6 418/9/6 419/9/6
f 419/9/6 418/9/6 420/9/6
f 421/5/6 422/5/6 423/5/6
f 423/5/6 422/5/6 424/5/6
f 425/12/6 426/12/6 427/12/6
f 427/12/6 426/12/6 428/12/6
f 429/8/6 430/8/6 431/8/6
f 431/8/6 430/8/6 432/8/6
f 432/8/6 430/8/6 433/8/6
f 433/8/6 430/8/6 434/8/6
f 434/8/6 430/8/6 435/8/6
f 435/8/6 430/8/6 436/8/6
f 437/8/6 438/8/6 443/8/6
f 443/8/6 438/8/6 444/8/6
f 439/8/6 440/8/6 445/8/6
f 445/8/6 440/8/6 446/8/6
f 441/8/6 442/8/6 447/8/6
f 447/8/6 442/8/6 448/8/6
f 444/13/6 445/13/6 449/13/6
f 449/13/6 445/13/6 450/13/6
f 446/13/6 447/13/6 451/13/6
f 451/13/6 447/13/6 452/13/6
f 449/8/6 450/8/6 453/8/6
f 453/8/6 450/8/6 454/8/6
f 451/8/6 452/8/6 455/8/6
f 455/8/6 452/8/6 456/8/6
f 457/8/6 458/8/6 463/8/6
f 463/8/6 458/8/6 464/8/6
f 459/8/6 460/8/6 465/8/6
f 465/8/6 460/8/6 466/8/6
f 461/8/6 462/8/6 467/8/6
f 467/8/6 462/8/6 468/8/6
