# MagicaVoxel @ Ephtracy

# material
mtllib MainRoom_Floor_Half.mtl
usemtl palette

# normals
vn -1 0 0
vn 1 0 0
vn 0 0 1
vn 0 0 -1
vn 0 -1 0
vn 0 1 0

# texcoords
vt 0.720703 0.5
vt 0.931641 0.5
vt 0.935547 0.5
vt 0.951172 0.5
vt 0.955078 0.5
vt 0.974609 0.5
vt 0.994141 0.5

# verts
v -1 0 63
v -1 0 -63
v -1 4 63
v -1 4 -63
v -1 5 63
v -1 5 -63
v 63 0 63
v 63 0 -63
v 63 4 63
v 63 4 -63
v 63 5 63
v 63 5 -63
v -1 0 63
v -1 4 63
v -1 5 63
v 63 0 63
v 63 4 63
v 63 5 63
v -1 0 -63
v -1 4 -63
v -1 5 -63
v 60 0 -63
v 60 4 -63
v 61 0 -63
v 61 4 -63
v 63 0 -63
v 63 4 -63
v 63 5 -63
v -1 0 63
v 63 0 63
v 60 0 13
v 61 0 13
v 62 0 13
v 60 0 -50
v 61 0 -50
v 61 0 -51
v 62 0 -51
v 61 0 -62
v 62 0 -62
v -1 0 -63
v 60 0 -63
v 61 0 -63
v 63 0 -63
v -1 5 63
v 63 5 63
v -1 5 -63
v 63 5 -63

# faces
f 3/2/1 2/2/1 1/2/1
f 4/2/1 2/2/1 3/2/1
f 5/4/1 4/4/1 3/4/1
f 6/4/1 4/4/1 5/4/1
f 7/2/2 8/2/2 9/2/2
f 9/2/2 8/2/2 10/2/2
f 9/4/2 10/4/2 11/4/2
f 11/4/2 10/4/2 12/4/2
f 16/2/3 14/2/3 13/2/3
f 17/4/3 15/4/3 14/4/3
f 17/2/3 14/2/3 16/2/3
f 18/4/3 15/4/3 17/4/3
f 19/2/4 20/2/4 22/2/4
f 20/4/4 21/4/4 23/4/4
f 22/2/4 20/2/4 23/2/4
f 22/1/4 23/1/4 24/1/4
f 23/4/4 21/4/4 25/4/4
f 24/1/4 23/1/4 25/1/4
f 24/2/4 25/2/4 26/2/4
f 25/4/4 21/4/4 27/4/4
f 26/2/4 25/2/4 27/2/4
f 27/4/4 21/4/4 28/4/4
f 31/2/5 30/2/5 29/2/5
f 32/2/5 30/2/5 31/2/5
f 33/2/5 30/2/5 32/2/5
f 34/2/5 31/2/5 29/2/5
f 34/4/5 32/4/5 31/4/5
f 35/5/5 33/5/5 32/5/5
f 35/4/5 32/4/5 34/4/5
f 36/1/5 35/1/5 34/1/5
f 36/5/5 33/5/5 35/5/5
f 37/2/5 30/2/5 33/2/5
f 37/5/5 33/5/5 36/5/5
f 38/1/5 36/1/5 34/1/5
f 38/6/5 37/6/5 36/6/5
f 39/2/5 30/2/5 37/2/5
f 39/6/5 37/6/5 38/6/5
f 40/2/5 34/2/5 29/2/5
f 41/1/5 38/1/5 34/1/5
f 41/2/5 34/2/5 40/2/5
f 42/2/5 39/2/5 38/2/5
f 42/1/5 38/1/5 41/1/5
f 43/2/5 30/2/5 39/2/5
f 43/2/5 39/2/5 42/2/5
f 44/4/6 45/4/6 46/4/6
f 46/4/6 45/4/6 47/4/6
