# MagicaVoxel @ Ephtracy

# material
mtllib MenuBar.mtl
usemtl palette

# normals
vn -1 0 0
vn 1 0 0
vn 0 0 1
vn 0 0 -1
vn 0 -1 0
vn 0 1 0

# texcoords
vt 0.755859 0.5
vt 0.798828 0.5

# verts
v 35 110 11
v 35 110 -2
v 35 126 11
v 35 126 -2
v 36 110 12
v 36 110 11
v 36 126 12
v 36 126 11
v 37 110 12
v 37 110 11
v 37 126 12
v 37 126 11
v 38 110 11
v 38 110 -2
v 38 126 11
v 38 126 -2
v 36 110 12
v 36 126 12
v 37 110 12
v 37 126 12
v 35 110 11
v 35 126 11
v 36 110 11
v 36 126 11
v 37 110 11
v 37 126 11
v 38 110 11
v 38 126 11
v 35 110 -2
v 35 126 -2
v 38 110 -2
v 38 126 -2
v 36 110 12
v 37 110 12
v 35 110 11
v 36 110 11
v 37 110 11
v 38 110 11
v 36 110 10
v 37 110 10
v 36 110 -1
v 37 110 -1
v 35 110 -2
v 38 110 -2
v 36 126 12
v 37 126 12
v 35 126 11
v 36 126 11
v 37 126 11
v 38 126 11
v 36 126 10
v 37 126 10
v 36 126 -1
v 37 126 -1
v 35 126 -2
v 38 126 -2

# faces
f 3/2/1 2/2/1 1/2/1
f 4/2/1 2/2/1 3/2/1
f 7/1/1 6/1/1 5/1/1
f 8/1/1 6/1/1 7/1/1
f 9/1/2 10/1/2 11/1/2
f 11/1/2 10/1/2 12/1/2
f 13/2/2 14/2/2 15/2/2
f 15/2/2 14/2/2 16/2/2
f 19/1/3 18/1/3 17/1/3
f 20/1/3 18/1/3 19/1/3
f 23/2/3 22/2/3 21/2/3
f 24/2/3 22/2/3 23/2/3
f 27/2/3 26/2/3 25/2/3
f 28/2/3 26/2/3 27/2/3
f 29/2/4 30/2/4 31/2/4
f 31/2/4 30/2/4 32/2/4
f 36/1/5 34/1/5 33/1/5
f 37/1/5 34/1/5 36/1/5
f 39/2/5 36/2/5 35/2/5
f 39/2/5 38/2/5 37/2/5
f 39/2/5 37/2/5 36/2/5
f 40/2/5 38/2/5 39/2/5
f 41/2/5 39/2/5 35/2/5
f 41/1/5 40/1/5 39/1/5
f 42/2/5 38/2/5 40/2/5
f 42/1/5 40/1/5 41/1/5
f 43/2/5 41/2/5 35/2/5
f 43/2/5 42/2/5 41/2/5
f 44/2/5 38/2/5 42/2/5
f 44/2/5 42/2/5 43/2/5
f 45/1/6 46/1/6 48/1/6
f 48/1/6 46/1/6 49/1/6
f 47/2/6 48/2/6 51/2/6
f 49/2/6 50/2/6 51/2/6
f 48/2/6 49/2/6 51/2/6
f 51/2/6 50/2/6 52/2/6
f 47/2/6 51/2/6 53/2/6
f 51/1/6 52/1/6 53/1/6
f 52/2/6 50/2/6 54/2/6
f 53/1/6 52/1/6 54/1/6
f 47/2/6 53/2/6 55/2/6
f 53/2/6 54/2/6 55/2/6
f 54/2/6 50/2/6 56/2/6
f 55/2/6 54/2/6 56/2/6
