# MagicaVoxel @ Ephtracy

# material
mtllib Prop_Shelves_01.mtl
usemtl palette

# normals
vn -1 0 0
vn 1 0 0
vn 0 0 1
vn 0 0 -1
vn 0 -1 0
vn 0 1 0

# texcoords
vt 0.916016 0.5
vt 0.931641 0.5
vt 0.982422 0.5

# verts
v -30 0 17
v -30 0 13
v -30 0 -13
v -30 0 -17
v -30 108 13
v -30 108 -13
v -30 110 13
v -30 110 -13
v -30 112 17
v -30 112 13
v -30 112 -13
v -30 112 -17
v -26 24 13
v -26 24 -13
v -26 26 13
v -26 26 -13
v -26 28 13
v -26 28 -13
v -26 64 13
v -26 64 -13
v -26 66 13
v -26 66 -13
v -26 68 13
v -26 68 -13
v -26 106 13
v -26 106 -13
v -26 108 13
v -26 108 -13
v 10 0 17
v 10 0 13
v 10 0 -13
v 10 0 -17
v 10 24 17
v 10 24 13
v 10 24 -13
v 10 24 -17
v 10 26 17
v 10 26 15
v 10 26 -15
v 10 26 -17
v 10 28 15
v 10 28 13
v 10 28 -13
v 10 28 -15
v 10 64 17
v 10 64 13
v 10 64 -13
v 10 64 -17
v 10 66 17
v 10 66 15
v 10 66 -15
v 10 66 -17
v 10 68 15
v 10 68 13
v 10 68 -13
v 10 68 -15
v 10 106 17
v 10 106 13
v 10 106 -13
v 10 106 -17
v 10 108 17
v 10 108 15
v 10 108 -15
v 10 108 -17
v 10 110 15
v 10 110 13
v 10 110 -13
v 10 110 -15
v 10 112 17
v 10 112 13
v 10 112 -13
v 10 112 -17
v -26 0 17
v -26 0 13
v -26 0 -13
v -26 0 -17
v -26 24 17
v -26 24 13
v -26 24 -13
v -26 24 -17
v -26 26 17
v -26 26 15
v -26 26 -15
v -26 26 -17
v -26 28 15
v -26 28 13
v -26 28 -13
v -26 28 -15
v -26 64 17
v -26 64 13
v -26 64 -13
v -26 64 -17
v -26 66 17
v -26 66 15
v -26 66 -15
v -26 66 -17
v -26 68 15
v -26 68 13
v -26 68 -13
v -26 68 -15
v -26 106 17
v -26 106 13
v -26 106 -13
v -26 106 -17
v -26 108 17
v -26 108 15
v -26 108 -15
v -26 108 -17
v -26 110 15
v -26 110 13
v -26 110 -13
v -26 110 -15
v -26 112 17
v -26 112 13
v -26 112 -13
v -26 112 -17
v 10 24 13
v 10 24 -13
v 10 26 13
v 10 26 -13
v 10 28 13
v 10 28 -13
v 10 64 13
v 10 64 -13
v 10 66 13
v 10 66 -13
v 10 68 13
v 10 68 -13
v 10 106 13
v 10 106 -13
v 10 108 13
v 10 108 -13
v 13 108 13
v 13 108 -13
v 13 110 13
v 13 110 -13
v 14 0 17
v 14 0 13
v 14 0 -13
v 14 0 -17
v 14 112 17
v 14 112 13
v 14 112 -13
v 14 112 -17
v -30 0 17
v -30 112 17
v -26 0 17
v -26 24 17
v -26 26 17
v -26 64 17
v -26 66 17
v -26 106 17
v -26 108 17
v -26 112 17
v 10 0 17
v 10 24 17
v 10 26 17
v 10 64 17
v 10 66 17
v 10 106 17
v 10 108 17
v 10 112 17
v 14 0 17
v 14 112 17
v -26 26 15
v -26 28 15
v -26 66 15
v -26 68 15
v -26 108 15
v -26 110 15
v 10 26 15
v 10 28 15
v 10 66 15
v 10 68 15
v 10 108 15
v 10 110 15
v -30 0 -13
v -30 108 -13
v -30 110 -13
v -30 112 -13
v -26 0 -13
v -26 24 -13
v -26 26 -13
v -26 28 -13
v -26 64 -13
v -26 66 -13
v -26 68 -13
v -26 106 -13
v -26 108 -13
v -26 110 -13
v -26 112 -13
v 10 0 -13
v 10 24 -13
v 10 26 -13
v 10 28 -13
v 10 64 -13
v 10 66 -13
v 10 68 -13
v 10 106 -13
v 10 108 -13
v 10 110 -13
v 10 112 -13
v 13 108 -13
v 13 110 -13
v 14 0 -13
v 14 112 -13
v -30 0 13
v -30 108 13
v -30 110 13
v -30 112 13
v -26 0 13
v -26 24 13
v -26 26 13
v -26 28 13
v -26 64 13
v -26 66 13
v -26 68 13
v -26 106 13
v -26 108 13
v -26 110 13
v -26 112 13
v 10 0 13
v 10 24 13
v 10 26 13
v 10 28 13
v 10 64 13
v 10 66 13
v 10 68 13
v 10 106 13
v 10 108 13
v 10 110 13
v 10 112 13
v 13 108 13
v 13 110 13
v 14 0 13
v 14 112 13
v -26 26 -15
v -26 28 -15
v -26 66 -15
v -26 68 -15
v -26 108 -15
v -26 110 -15
v 10 26 -15
v 10 28 -15
v 10 66 -15
v 10 68 -15
v 10 108 -15
v 10 110 -15
v -30 0 -17
v -30 112 -17
v -26 0 -17
v -26 24 -17
v -26 26 -17
v -26 64 -17
v -26 66 -17
v -26 106 -17
v -26 108 -17
v -26 112 -17
v 10 0 -17
v 10 24 -17
v 10 26 -17
v 10 64 -17
v 10 66 -17
v 10 106 -17
v 10 108 -17
v 10 112 -17
v 14 0 -17
v 14 112 -17
v -30 0 17
v -26 0 17
v 10 0 17
v 14 0 17
v -30 0 13
v -26 0 13
v 10 0 13
v 14 0 13
v -30 0 -13
v -26 0 -13
v 10 0 -13
v 14 0 -13
v -30 0 -17
v -26 0 -17
v 10 0 -17
v 14 0 -17
v -26 24 17
v 10 24 17
v -26 24 13
v 10 24 13
v -26 24 -13
v 10 24 -13
v -26 24 -17
v 10 24 -17
v -26 64 17
v 10 64 17
v -26 64 13
v 10 64 13
v -26 64 -13
v 10 64 -13
v -26 64 -17
v 10 64 -17
v -26 106 17
v 10 106 17
v -26 106 13
v 10 106 13
v -26 106 -13
v 10 106 -13
v -26 106 -17
v 10 106 -17
v -30 108 13
v -26 108 13
v 10 108 13
v 13 108 13
v -30 108 -13
v -26 108 -13
v 10 108 -13
v 13 108 -13
v -26 26 17
v 10 26 17
v -26 26 15
v 10 26 15
v -26 26 -15
v 10 26 -15
v -26 26 -17
v 10 26 -17
v -26 28 15
v 10 28 15
v -26 28 13
v 10 28 13
v -26 28 -13
v 10 28 -13
v -26 28 -15
v 10 28 -15
v -26 66 17
v 10 66 17
v -26 66 15
v 10 66 15
v -26 66 -15
v 10 66 -15
v -26 66 -17
v 10 66 -17
v -26 68 15
v 10 68 15
v -26 68 13
v 10 68 13
v -26 68 -13
v 10 68 -13
v -26 68 -15
v 10 68 -15
v -26 108 17
v 10 108 17
v -26 108 15
v 10 108 15
v -26 108 -15
v 10 108 -15
v -26 108 -17
v 10 108 -17
v -26 110 15
v 10 110 15
v -30 110 13
v -26 110 13
v 10 110 13
v 13 110 13
v -30 110 -13
v -26 110 -13
v 10 110 -13
v 13 110 -13
v -26 110 -15
v 10 110 -15
v -30 112 17
v -26 112 17
v 10 112 17
v 14 112 17
v -30 112 13
v -26 112 13
v 10 112 13
v 14 112 13
v -30 112 -13
v -26 112 -13
v 10 112 -13
v 14 112 -13
v -30 112 -17
v -26 112 -17
v 10 112 -17
v 14 112 -17

# faces
f 5/2/1 2/2/1 1/2/1
f 6/2/1 4/2/1 3/2/1
f 7/2/1 5/2/1 1/2/1
f 7/3/1 6/3/1 5/3/1
f 8/2/1 4/2/1 6/2/1
f 8/3/1 6/3/1 7/3/1
f 9/2/1 7/2/1 1/2/1
f 10/2/1 7/2/1 9/2/1
f 11/2/1 4/2/1 8/2/1
f 12/2/1 4/2/1 11/2/1
f 15/2/1 14/2/1 13/2/1
f 16/2/1 14/2/1 15/2/1
f 17/3/1 16/3/1 15/3/1
f 18/3/1 16/3/1 17/3/1
f 21/2/1 20/2/1 19/2/1
f 22/2/1 20/2/1 21/2/1
f 23/3/1 22/3/1 21/3/1
f 24/3/1 22/3/1 23/3/1
f 27/2/1 26/2/1 25/2/1
f 28/2/1 26/2/1 27/2/1
f 33/2/1 30/2/1 29/2/1
f 34/2/1 30/2/1 33/2/1
f 35/2/1 32/2/1 31/2/1
f 36/2/1 32/2/1 35/2/1
f 41/2/1 38/2/1 37/2/1
f 44/2/1 40/2/1 39/2/1
f 45/2/1 42/2/1 41/2/1
f 45/2/1 41/2/1 37/2/1
f 46/2/1 42/2/1 45/2/1
f 47/2/1 44/2/1 43/2/1
f 48/2/1 40/2/1 44/2/1
f 48/2/1 44/2/1 47/2/1
f 53/2/1 50/2/1 49/2/1
f 56/2/1 52/2/1 51/2/1
f 57/2/1 54/2/1 53/2/1
f 57/2/1 53/2/1 49/2/1
f 58/2/1 54/2/1 57/2/1
f 59/2/1 56/2/1 55/2/1
f 60/2/1 52/2/1 56/2/1
f 60/2/1 56/2/1 59/2/1
f 65/2/1 62/2/1 61/2/1
f 68/2/1 64/2/1 63/2/1
f 69/2/1 66/2/1 65/2/1
f 69/2/1 65/2/1 61/2/1
f 70/2/1 66/2/1 69/2/1
f 71/2/1 68/2/1 67/2/1
f 72/2/1 64/2/1 68/2/1
f 72/2/1 68/2/1 71/2/1
f 73/2/2 74/2/2 77/2/2
f 77/2/2 74/2/2 78/2/2
f 75/2/2 76/2/2 79/2/2
f 79/2/2 76/2/2 80/2/2
f 81/2/2 82/2/2 85/2/2
f 83/2/2 84/2/2 88/2/2
f 85/2/2 86/2/2 89/2/2
f 81/2/2 85/2/2 89/2/2
f 89/2/2 86/2/2 90/2/2
f 87/2/2 88/2/2 91/2/2
f 88/2/2 84/2/2 92/2/2
f 91/2/2 88/2/2 92/2/2
f 93/2/2 94/2/2 97/2/2
f 95/2/2 96/2/2 100/2/2
f 97/2/2 98/2/2 101/2/2
f 93/2/2 97/2/2 101/2/2
f 101/2/2 98/2/2 102/2/2
f 99/2/2 100/2/2 103/2/2
f 100/2/2 96/2/2 104/2/2
f 103/2/2 100/2/2 104/2/2
f 105/2/2 106/2/2 109/2/2
f 107/2/2 108/2/2 112/2/2
f 109/2/2 110/2/2 113/2/2
f 105/2/2 109/2/2 113/2/2
f 113/2/2 110/2/2 114/2/2
f 111/2/2 112/2/2 115/2/2
f 112/2/2 108/2/2 116/2/2
f 115/2/2 112/2/2 116/2/2
f 117/2/2 118/2/2 119/2/2
f 119/2/2 118/2/2 120/2/2
f 119/3/2 120/3/2 121/3/2
f 121/3/2 120/3/2 122/3/2
f 123/2/2 124/2/2 125/2/2
f 125/2/2 124/2/2 126/2/2
f 125/3/2 126/3/2 127/3/2
f 127/3/2 126/3/2 128/3/2
f 129/2/2 130/2/2 131/2/2
f 131/2/2 130/2/2 132/2/2
f 133/3/2 134/3/2 135/3/2
f 135/3/2 134/3/2 136/3/2
f 137/2/2 138/2/2 141/2/2
f 141/2/2 138/2/2 142/2/2
f 139/2/2 140/2/2 143/2/2
f 143/2/2 140/2/2 144/2/2
f 147/2/3 146/2/3 145/2/3
f 148/2/3 146/2/3 147/2/3
f 149/2/3 146/2/3 148/2/3
f 150/2/3 146/2/3 149/2/3
f 151/2/3 146/2/3 150/2/3
f 152/2/3 146/2/3 151/2/3
f 153/2/3 146/2/3 152/2/3
f 154/2/3 146/2/3 153/2/3
f 156/2/3 149/2/3 148/2/3
f 157/2/3 149/2/3 156/2/3
f 158/2/3 151/2/3 150/2/3
f 159/2/3 151/2/3 158/2/3
f 160/2/3 153/2/3 152/2/3
f 161/2/3 153/2/3 160/2/3
f 163/2/3 157/2/3 156/2/3
f 163/2/3 162/2/3 161/2/3
f 163/2/3 161/2/3 160/2/3
f 163/2/3 160/2/3 159/2/3
f 163/2/3 159/2/3 158/2/3
f 163/2/3 158/2/3 157/2/3
f 163/2/3 156/2/3 155/2/3
f 164/2/3 162/2/3 163/2/3
f 171/3/3 166/3/3 165/3/3
f 172/3/3 166/3/3 171/3/3
f 173/3/3 168/3/3 167/3/3
f 174/3/3 168/3/3 173/3/3
f 175/3/3 170/3/3 169/3/3
f 176/3/3 170/3/3 175/3/3
f 181/2/3 178/2/3 177/2/3
f 182/2/3 178/2/3 181/2/3
f 183/2/3 178/2/3 182/2/3
f 184/2/3 178/2/3 183/2/3
f 185/2/3 178/2/3 184/2/3
f 186/2/3 178/2/3 185/2/3
f 187/2/3 178/2/3 186/2/3
f 188/2/3 178/2/3 187/2/3
f 189/2/3 178/2/3 188/2/3
f 190/2/3 180/2/3 179/2/3
f 191/2/3 180/2/3 190/2/3
f 203/2/3 193/2/3 192/2/3
f 203/2/3 194/2/3 193/2/3
f 203/2/3 200/2/3 199/2/3
f 203/2/3 199/2/3 198/2/3
f 203/2/3 198/2/3 197/2/3
f 203/2/3 197/2/3 196/2/3
f 203/2/3 196/2/3 195/2/3
f 203/2/3 195/2/3 194/2/3
f 204/2/3 202/2/3 201/2/3
f 205/2/3 203/2/3 192/2/3
f 205/2/3 204/2/3 203/2/3
f 206/2/3 202/2/3 204/2/3
f 206/2/3 204/2/3 205/2/3
f 207/2/4 208/2/4 211/2/4
f 211/2/4 208/2/4 212/2/4
f 212/2/4 208/2/4 213/2/4
f 213/2/4 208/2/4 214/2/4
f 214/2/4 208/2/4 215/2/4
f 215/2/4 208/2/4 216/2/4
f 216/2/4 208/2/4 217/2/4
f 217/2/4 208/2/4 218/2/4
f 218/2/4 208/2/4 219/2/4
f 209/2/4 210/2/4 220/2/4
f 220/2/4 210/2/4 221/2/4
f 222/2/4 223/2/4 233/2/4
f 223/2/4 224/2/4 233/2/4
f 229/2/4 230/2/4 233/2/4
f 228/2/4 229/2/4 233/2/4
f 227/2/4 228/2/4 233/2/4
f 226/2/4 227/2/4 233/2/4
f 225/2/4 226/2/4 233/2/4
f 224/2/4 225/2/4 233/2/4
f 231/2/4 232/2/4 234/2/4
f 222/2/4 233/2/4 235/2/4
f 233/2/4 234/2/4 235/2/4
f 234/2/4 232/2/4 236/2/4
f 235/2/4 234/2/4 236/2/4
f 237/3/4 238/3/4 243/3/4
f 243/3/4 238/3/4 244/3/4
f 239/3/4 240/3/4 245/3/4
f 245/3/4 240/3/4 246/3/4
f 241/3/4 242/3/4 247/3/4
f 247/3/4 242/3/4 248/3/4
f 249/2/4 250/2/4 251/2/4
f 251/2/4 250/2/4 252/2/4
f 252/2/4 250/2/4 253/2/4
f 253/2/4 250/2/4 254/2/4
f 254/2/4 250/2/4 255/2/4
f 255/2/4 250/2/4 256/2/4
f 256/2/4 250/2/4 257/2/4
f 257/2/4 250/2/4 258/2/4
f 252/2/4 253/2/4 260/2/4
f 260/2/4 253/2/4 261/2/4
f 254/2/4 255/2/4 262/2/4
f 262/2/4 255/2/4 263/2/4
f 256/2/4 257/2/4 264/2/4
f 264/2/4 257/2/4 265/2/4
f 260/2/4 261/2/4 267/2/4
f 265/2/4 266/2/4 267/2/4
f 264/2/4 265/2/4 267/2/4
f 263/2/4 264/2/4 267/2/4
f 262/2/4 263/2/4 267/2/4
f 261/2/4 262/2/4 267/2/4
f 259/2/4 260/2/4 267/2/4
f 267/2/4 266/2/4 268/2/4
f 273/2/5 270/2/5 269/2/5
f 274/2/5 270/2/5 273/2/5
f 275/2/5 272/2/5 271/2/5
f 276/2/5 272/2/5 275/2/5
f 281/2/5 278/2/5 277/2/5
f 282/2/5 278/2/5 281/2/5
f 283/2/5 280/2/5 279/2/5
f 284/2/5 280/2/5 283/2/5
f 287/2/5 286/2/5 285/2/5
f 288/2/5 286/2/5 287/2/5
f 289/2/5 288/2/5 287/2/5
f 290/2/5 288/2/5 289/2/5
f 291/2/5 290/2/5 289/2/5
f 292/2/5 290/2/5 291/2/5
f 295/2/5 294/2/5 293/2/5
f 296/2/5 294/2/5 295/2/5
f 297/2/5 296/2/5 295/2/5
f 298/2/5 296/2/5 297/2/5
f 299/2/5 298/2/5 297/2/5
f 300/2/5 298/2/5 299/2/5
f 303/2/5 302/2/5 301/2/5
f 304/2/5 302/2/5 303/2/5
f 305/2/5 304/2/5 303/2/5
f 306/2/5 304/2/5 305/2/5
f 307/2/5 306/2/5 305/2/5
f 308/2/5 306/2/5 307/2/5
f 313/3/5 310/3/5 309/3/5
f 314/3/5 310/3/5 313/3/5
f 315/3/5 312/3/5 311/3/5
f 316/3/5 312/3/5 315/3/5
f 317/2/6 318/2/6 319/2/6
f 319/2/6 318/2/6 320/2/6
f 321/2/6 322/2/6 323/2/6
f 323/2/6 322/2/6 324/2/6
f 325/3/6 326/3/6 327/3/6
f 327/3/6 326/3/6 328/3/6
f 327/3/6 328/3/6 329/3/6
f 329/3/6 328/3/6 330/3/6
f 329/3/6 330/3/6 331/3/6
f 331/3/6 330/3/6 332/3/6
f 333/2/6 334/2/6 335/2/6
f 335/2/6 334/2/6 336/2/6
f 337/2/6 338/2/6 339/2/6
f 339/2/6 338/2/6 340/2/6
f 341/3/6 342/3/6 343/3/6
f 343/3/6 342/3/6 344/3/6
f 343/3/6 344/3/6 345/3/6
f 345/3/6 344/3/6 346/3/6
f 345/3/6 346/3/6 347/3/6
f 347/3/6 346/3/6 348/3/6
f 349/2/6 350/2/6 351/2/6
f 351/2/6 350/2/6 352/2/6
f 353/2/6 354/2/6 355/2/6
f 355/2/6 354/2/6 356/2/6
f 357/3/6 358/3/6 360/3/6
f 360/3/6 358/3/6 361/3/6
f 359/3/6 360/3/6 363/3/6
f 361/3/6 362/3/6 363/3/6
f 360/3/6 361/3/6 363/3/6
f 363/3/6 362/3/6 364/3/6
f 364/3/6 362/3/6 365/3/6
f 365/3/6 362/3/6 366/3/6
f 364/3/6 365/3/6 367/3/6
f 367/3/6 365/3/6 368/3/6
f 369/2/6 370/2/6 373/2/6
f 373/2/6 370/2/6 374/2/6
f 371/2/6 372/2/6 375/2/6
f 375/2/6 372/2/6 376/2/6
f 377/2/6 378/2/6 381/2/6
f 381/2/6 378/2/6 382/2/6
f 379/2/6 380/2/6 383/2/6
f 383/2/6 380/2/6 384/2/6
