# MagicaVoxel @ Ephtracy

# material
mtllib Props_Bedroom_Bed.mtl
usemtl palette

# normals
vn -1 0 0
vn 1 0 0
vn 0 0 1
vn 0 0 -1
vn 0 -1 0
vn 0 1 0

# texcoords
vt 0.908203 0.5
vt 0.912109 0.5
vt 0.939453 0.5
vt 0.943359 0.5
vt 0.962891 0.5
vt 0.966797 0.5
vt 0.994141 0.5

# verts
v -55 10 24
v -55 10 -1
v -55 30 24
v -55 30 -1
v -54 14 41
v -54 14 24
v -54 14 -1
v -54 14 -37
v -54 30 41
v -54 30 24
v -54 30 -1
v -54 30 -37
v -54 31 24
v -54 31 -1
v -53 9 43
v -53 9 39
v -53 9 -53
v -53 9 -57
v -53 14 41
v -53 14 39
v -53 14 -37
v -53 17 -37
v -53 17 -53
v -53 25 -37
v -53 25 -53
v -53 30 41
v -53 30 24
v -53 30 -1
v -53 30 -37
v -53 31 41
v -53 31 24
v -53 31 -1
v -53 31 -37
v -53 32 24
v -53 32 -1
v -53 34 43
v -53 34 41
v -53 40 -53
v -53 40 -57
v -50 25 -37
v -50 25 -54
v -50 31 -36
v -50 31 -37
v -50 32 -36
v -50 32 -54
v -49 32 -37
v -49 32 -53
v -49 33 -37
v -49 33 -38
v -49 34 -38
v -49 34 -53
v -19 25 -37
v -19 25 -54
v -19 31 -36
v -19 31 -37
v -19 32 -36
v -19 32 -54
v -18 32 -37
v -18 32 -53
v -18 33 -37
v -18 33 -38
v -18 34 -38
v -18 34 -53
v 3 9 43
v 3 9 42
v 3 9 39
v 3 9 -54
v 3 9 -56
v 3 9 -57
v 3 17 43
v 3 17 42
v 3 17 39
v 3 17 -54
v 3 17 -56
v 3 17 -57
v 3 25 43
v 3 25 42
v 3 25 -55
v 3 25 -56
v 3 25 -57
v 3 29 -55
v 3 29 -56
v 3 30 42
v 3 30 41
v 3 31 41
v 3 34 43
v 3 34 41
v 3 40 -55
v 3 40 -57
v 5 25 -54
v 5 25 -55
v 5 29 -54
v 5 29 -55
v 5 32 -53
v 5 32 -54
v 5 34 -53
v 5 40 -53
v 5 40 -55
v 8 13 24
v 8 13 -1
v 8 17 24
v 8 17 -1
v -54 10 24
v -54 10 -1
v -54 14 24
v -54 14 -1
v -51 25 -53
v -51 25 -55
v -51 40 -53
v -51 40 -55
v -50 9 39
v -50 9 -53
v -50 17 39
v -50 17 -53
v -49 9 43
v -49 9 42
v -49 9 39
v -49 9 -53
v -49 9 -57
v -49 17 43
v -49 17 42
v -49 17 39
v -49 17 -53
v -49 17 -56
v -49 17 -57
v -49 25 43
v -49 25 42
v -49 25 -55
v -49 25 -57
v -49 30 42
v -49 30 41
v -49 31 41
v -49 34 43
v -49 34 41
v -49 40 -55
v -49 40 -57
v -21 32 -37
v -21 32 -53
v -21 33 -37
v -21 33 -38
v -21 34 -38
v -21 34 -53
v -20 25 -37
v -20 25 -54
v -20 31 -36
v -20 31 -37
v -20 32 -36
v -20 32 -54
v 5 28 -37
v 5 28 -53
v 5 29 -37
v 5 29 -53
v 5 32 -37
v 5 32 -53
v 5 33 -37
v 5 33 -38
v 5 34 -38
v 5 34 -53
v 6 25 -37
v 6 25 -53
v 6 28 -37
v 6 28 -53
v 6 29 -37
v 6 29 -53
v 6 31 -36
v 6 31 -37
v 6 32 -36
v 6 32 -53
v 7 9 43
v 7 9 39
v 7 9 -53
v 7 9 -57
v 7 17 41
v 7 17 39
v 7 17 24
v 7 17 -1
v 7 17 -37
v 7 17 -53
v 7 25 -37
v 7 25 -53
v 7 30 41
v 7 30 24
v 7 30 -1
v 7 30 -37
v 7 31 41
v 7 31 24
v 7 31 -1
v 7 31 -37
v 7 32 24
v 7 32 -1
v 7 34 43
v 7 34 41
v 7 40 -53
v 7 40 -57
v 8 17 41
v 8 17 24
v 8 17 -1
v 8 17 -37
v 8 30 41
v 8 30 24
v 8 30 -1
v 8 30 -37
v 8 31 24
v 8 31 -1
v 9 13 24
v 9 13 -1
v 9 30 24
v 9 30 -1
v -53 9 43
v -53 34 43
v -49 9 43
v -49 17 43
v -49 25 43
v -49 34 43
v 3 9 43
v 3 17 43
v 3 25 43
v 3 34 43
v 7 9 43
v 7 34 43
v -49 25 42
v -49 30 42
v 3 25 42
v 3 30 42
v -54 14 41
v -54 30 41
v -53 14 41
v -53 30 41
v -49 30 41
v -49 31 41
v 3 30 41
v 3 31 41
v 7 17 41
v 7 30 41
v 8 17 41
v 8 30 41
v -55 10 24
v -55 30 24
v -54 10 24
v -54 14 24
v -54 30 24
v -54 31 24
v -53 30 24
v -53 31 24
v -53 32 24
v 7 30 24
v 7 31 24
v 7 32 24
v 8 13 24
v 8 17 24
v 8 30 24
v 8 31 24
v 9 13 24
v 9 30 24
v -50 31 -36
v -50 32 -36
v -20 31 -36
v -20 32 -36
v -19 31 -36
v -19 32 -36
v 6 31 -36
v 6 32 -36
v -49 32 -37
v -49 33 -37
v -21 32 -37
v -21 33 -37
v -18 32 -37
v -18 33 -37
v 5 32 -37
v 5 33 -37
v -49 33 -38
v -49 34 -38
v -21 33 -38
v -21 34 -38
v -18 33 -38
v -18 34 -38
v 5 33 -38
v 5 34 -38
v -53 25 -53
v -53 40 -53
v -51 25 -53
v -51 40 -53
v -50 9 -53
v -50 17 -53
v -49 9 -53
v -49 17 -53
v 5 28 -53
v 5 29 -53
v 5 32 -53
v 5 34 -53
v 5 40 -53
v 6 25 -53
v 6 28 -53
v 6 29 -53
v 6 32 -53
v 7 25 -53
v 7 40 -53
v -51 25 -55
v -51 40 -55
v -49 25 -55
v -49 40 -55
v 3 25 -55
v 3 29 -55
v 3 40 -55
v 5 25 -55
v 5 29 -55
v 5 40 -55
v -53 31 41
v -53 34 41
v -49 31 41
v -49 34 41
v 3 31 41
v 3 34 41
v 7 31 41
v 7 34 41
v -50 9 39
v -50 17 39
v -49 9 39
v -49 17 39
v -55 10 -1
v -55 30 -1
v -54 10 -1
v -54 14 -1
v -54 30 -1
v -54 31 -1
v -53 30 -1
v -53 31 -1
v -53 32 -1
v 7 30 -1
v 7 31 -1
v 7 32 -1
v 8 13 -1
v 8 17 -1
v 8 30 -1
v 8 31 -1
v 9 13 -1
v 9 30 -1
v -54 14 -37
v -54 30 -37
v -53 14 -37
v -53 17 -37
v -53 25 -37
v -53 30 -37
v -53 31 -37
v -50 25 -37
v -50 31 -37
v -20 25 -37
v -20 31 -37
v -19 25 -37
v -19 31 -37
v 5 28 -37
v 5 29 -37
v 6 25 -37
v 6 28 -37
v 6 29 -37
v 6 31 -37
v 7 17 -37
v 7 25 -37
v 7 30 -37
v 7 31 -37
v 8 17 -37
v 8 30 -37
v -49 32 -53
v -49 34 -53
v -21 32 -53
v -21 34 -53
v -18 32 -53
v -18 34 -53
v 5 32 -53
v 5 34 -53
v -50 25 -54
v -50 32 -54
v -20 25 -54
v -20 32 -54
v -19 25 -54
v -19 32 -54
v 5 25 -54
v 5 29 -54
v 5 32 -54
v -53 9 -57
v -53 40 -57
v -49 9 -57
v -49 17 -57
v -49 25 -57
v -49 40 -57
v 3 9 -57
v 3 17 -57
v 3 25 -57
v 3 40 -57
v 7 9 -57
v 7 40 -57
v -53 9 43
v -49 9 43
v 3 9 43
v 7 9 43
v -52 9 42
v -49 9 42
v 3 9 42
v 6 9 42
v -53 9 39
v -52 9 39
v -50 9 39
v -49 9 39
v 3 9 39
v 5 9 39
v 6 9 39
v 7 9 39
v -53 9 -53
v -52 9 -53
v -50 9 -53
v -49 9 -53
v 5 9 -53
v 6 9 -53
v 7 9 -53
v 3 9 -54
v 6 9 -54
v -52 9 -56
v -50 9 -56
v 3 9 -56
v 6 9 -56
v -53 9 -57
v -49 9 -57
v 3 9 -57
v 7 9 -57
v -55 10 24
v -54 10 24
v -55 10 -1
v -54 10 -1
v 8 13 24
v 9 13 24
v 8 13 -1
v 9 13 -1
v -54 14 41
v -53 14 41
v -53 14 39
v -54 14 24
v -54 14 -1
v -54 14 -37
v -53 14 -37
v -49 17 43
v 3 17 43
v -49 17 42
v 3 17 42
v 7 17 41
v 8 17 41
v -50 17 39
v -49 17 39
v 3 17 39
v 7 17 39
v 7 17 24
v 8 17 24
v 7 17 -1
v 8 17 -1
v 7 17 -37
v 8 17 -37
v -50 17 -53
v -49 17 -53
v 3 17 -54
v -49 17 -56
v 3 17 -56
v -49 17 -57
v 3 17 -57
v 5 29 -37
v 6 29 -37
v 5 29 -53
v 6 29 -53
v -49 25 43
v 3 25 43
v -49 25 42
v 3 25 42
v -53 25 -37
v -50 25 -37
v -20 25 -37
v -19 25 -37
v 6 25 -37
v 7 25 -37
v -53 25 -53
v -51 25 -53
v 6 25 -53
v 7 25 -53
v -50 25 -54
v -20 25 -54
v -19 25 -54
v 5 25 -54
v -51 25 -55
v -49 25 -55
v 3 25 -55
v 5 25 -55
v 3 25 -56
v -49 25 -57
v 3 25 -57
v 5 28 -37
v 6 28 -37
v 5 28 -53
v 6 28 -53
v -49 30 42
v 3 30 42
v -54 30 41
v -53 30 41
v -49 30 41
v 3 30 41
v 7 30 41
v 8 30 41
v -55 30 24
v -54 30 24
v -53 30 24
v 7 30 24
v 8 30 24
v 9 30 24
v -55 30 -1
v -54 30 -1
v -53 30 -1
v 7 30 -1
v 8 30 -1
v 9 30 -1
v -54 30 -37
v -53 30 -37
v 7 30 -37
v 8 30 -37
v -53 31 41
v -49 31 41
v 3 31 41
v 7 31 41
v -54 31 24
v -53 31 24
v 7 31 24
v 8 31 24
v -54 31 -1
v -53 31 -1
v 7 31 -1
v 8 31 -1
v -50 31 -36
v -20 31 -36
v -19 31 -36
v 6 31 -36
v -53 31 -37
v -50 31 -37
v -20 31 -37
v -19 31 -37
v 6 31 -37
v 7 31 -37
v -53 32 24
v 7 32 24
v -53 32 -1
v 7 32 -1
v -50 32 -36
v -20 32 -36
v -19 32 -36
v 6 32 -36
v -49 32 -37
v -21 32 -37
v -18 32 -37
v 5 32 -37
v -49 32 -53
v -21 32 -53
v -18 32 -53
v 5 32 -53
v 6 32 -53
v -50 32 -54
v -20 32 -54
v -19 32 -54
v 5 32 -54
v -49 33 -37
v -21 33 -37
v -18 33 -37
v 5 33 -37
v -49 33 -38
v -21 33 -38
v -18 33 -38
v 5 33 -38
v -53 34 43
v -49 34 43
v 3 34 43
v 7 34 43
v -53 34 41
v -49 34 41
v 3 34 41
v 7 34 41
v -49 34 -38
v -21 34 -38
v -18 34 -38
v 5 34 -38
v -49 34 -53
v -21 34 -53
v -18 34 -53
v 5 34 -53
v -53 40 -53
v -51 40 -53
v 5 40 -53
v 7 40 -53
v -51 40 -55
v -49 40 -55
v 3 40 -55
v 5 40 -55
v -53 40 -57
v -49 40 -57
v 3 40 -57
v 7 40 -57

# faces
f 3/4/1 2/4/1 1/4/1
f 4/4/1 2/4/1 3/4/1
f 9/2/1 6/2/1 5/2/1
f 10/2/1 6/2/1 9/2/1
f 11/2/1 8/2/1 7/2/1
f 12/2/1 8/2/1 11/2/1
f 13/4/1 11/4/1 10/4/1
f 14/4/1 11/4/1 13/4/1
f 19/5/1 16/5/1 15/5/1
f 20/7/1 17/7/1 16/7/1
f 20/5/1 16/5/1 19/5/1
f 21/7/1 17/7/1 20/7/1
f 22/7/1 17/7/1 21/7/1
f 23/5/1 18/5/1 17/5/1
f 23/7/1 17/7/1 22/7/1
f 24/5/1 23/5/1 22/5/1
f 25/5/1 18/5/1 23/5/1
f 25/5/1 23/5/1 24/5/1
f 26/5/1 19/5/1 15/5/1
f 30/5/1 26/5/1 15/5/1
f 30/2/1 27/2/1 26/2/1
f 31/2/1 27/2/1 30/2/1
f 32/2/1 29/2/1 28/2/1
f 33/2/1 29/2/1 32/2/1
f 34/4/1 32/4/1 31/4/1
f 35/4/1 32/4/1 34/4/1
f 36/5/1 30/5/1 15/5/1
f 37/5/1 30/5/1 36/5/1
f 38/5/1 18/5/1 25/5/1
f 39/5/1 18/5/1 38/5/1
f 43/3/1 41/3/1 40/3/1
f 44/3/1 43/3/1 42/3/1
f 45/3/1 41/3/1 43/3/1
f 45/3/1 43/3/1 44/3/1
f 48/2/1 47/2/1 46/2/1
f 49/2/1 47/2/1 48/2/1
f 50/2/1 47/2/1 49/2/1
f 51/2/1 47/2/1 50/2/1
f 55/3/1 53/3/1 52/3/1
f 56/3/1 55/3/1 54/3/1
f 57/3/1 53/3/1 55/3/1
f 57/3/1 55/3/1 56/3/1
f 60/2/1 59/2/1 58/2/1
f 61/2/1 59/2/1 60/2/1
f 62/2/1 59/2/1 61/2/1
f 63/2/1 59/2/1 62/2/1
f 70/5/1 65/5/1 64/5/1
f 71/3/1 66/3/1 65/3/1
f 71/5/1 65/5/1 70/5/1
f 72/5/1 67/5/1 66/5/1
f 72/3/1 66/3/1 71/3/1
f 73/3/1 68/3/1 67/3/1
f 73/5/1 67/5/1 72/5/1
f 74/5/1 69/5/1 68/5/1
f 74/3/1 68/3/1 73/3/1
f 75/5/1 69/5/1 74/5/1
f 81/3/1 79/3/1 78/3/1
f 82/5/1 80/5/1 79/5/1
f 82/3/1 79/3/1 81/3/1
f 83/5/1 77/5/1 76/5/1
f 85/5/1 84/5/1 83/5/1
f 86/5/1 83/5/1 76/5/1
f 86/5/1 85/5/1 83/5/1
f 87/5/1 85/5/1 86/5/1
f 88/5/1 82/5/1 81/5/1
f 89/5/1 80/5/1 82/5/1
f 89/5/1 82/5/1 88/5/1
f 92/3/1 91/3/1 90/3/1
f 93/3/1 91/3/1 92/3/1
f 95/5/1 93/5/1 92/5/1
f 96/5/1 95/5/1 94/5/1
f 97/5/1 95/5/1 96/5/1
f 98/5/1 93/5/1 95/5/1
f 98/5/1 95/5/1 97/5/1
f 101/4/1 100/4/1 99/4/1
f 102/4/1 100/4/1 101/4/1
f 103/4/2 104/4/2 105/4/2
f 105/4/2 104/4/2 106/4/2
f 107/5/2 108/5/2 109/5/2
f 109/5/2 108/5/2 110/5/2
f 111/6/2 112/6/2 113/6/2
f 113/6/2 112/6/2 114/6/2
f 115/5/2 116/5/2 120/5/2
f 116/3/2 117/3/2 121/3/2
f 120/5/2 116/5/2 121/5/2
f 121/3/2 117/3/2 122/3/2
f 118/5/2 119/5/2 123/5/2
f 123/5/2 119/5/2 124/5/2
f 124/5/2 119/5/2 125/5/2
f 126/5/2 127/5/2 130/5/2
f 130/5/2 131/5/2 132/5/2
f 126/5/2 130/5/2 133/5/2
f 130/5/2 132/5/2 133/5/2
f 133/5/2 132/5/2 134/5/2
f 128/5/2 129/5/2 135/5/2
f 135/5/2 129/5/2 136/5/2
f 137/2/2 138/2/2 139/2/2
f 139/2/2 138/2/2 140/2/2
f 140/2/2 138/2/2 141/2/2
f 141/2/2 138/2/2 142/2/2
f 143/3/2 144/3/2 146/3/2
f 145/3/2 146/3/2 147/3/2
f 146/3/2 144/3/2 148/3/2
f 147/3/2 146/3/2 148/3/2
f 149/3/2 150/3/2 151/3/2
f 151/3/2 150/3/2 152/3/2
f 153/2/2 154/2/2 155/2/2
f 155/2/2 154/2/2 156/2/2
f 156/2/2 154/2/2 157/2/2
f 157/2/2 154/2/2 158/2/2
f 159/3/2 160/3/2 161/3/2
f 161/3/2 160/3/2 162/3/2
f 163/3/2 164/3/2 166/3/2
f 165/3/2 166/3/2 167/3/2
f 166/3/2 164/3/2 168/3/2
f 167/3/2 166/3/2 168/3/2
f 169/5/2 170/5/2 173/5/2
f 170/7/2 171/7/2 174/7/2
f 173/5/2 170/5/2 174/5/2
f 174/7/2 171/7/2 175/7/2
f 175/7/2 171/7/2 176/7/2
f 176/7/2 171/7/2 177/7/2
f 171/5/2 172/5/2 178/5/2
f 177/7/2 171/7/2 178/7/2
f 177/5/2 178/5/2 179/5/2
f 178/5/2 172/5/2 180/5/2
f 179/5/2 178/5/2 180/5/2
f 169/5/2 173/5/2 181/5/2
f 169/5/2 181/5/2 185/5/2
f 181/2/2 182/2/2 185/2/2
f 185/2/2 182/2/2 186/2/2
f 183/2/2 184/2/2 187/2/2
f 187/2/2 184/2/2 188/2/2
f 186/4/2 187/4/2 189/4/2
f 189/4/2 187/4/2 190/4/2
f 169/5/2 185/5/2 191/5/2
f 191/5/2 185/5/2 192/5/2
f 180/5/2 172/5/2 193/5/2
f 193/5/2 172/5/2 194/5/2
f 195/2/2 196/2/2 199/2/2
f 199/2/2 196/2/2 200/2/2
f 197/2/2 198/2/2 201/2/2
f 201/2/2 198/2/2 202/2/2
f 200/4/2 201/4/2 203/4/2
f 203/4/2 201/4/2 204/4/2
f 205/4/2 206/4/2 207/4/2
f 207/4/2 206/4/2 208/4/2
f 211/5/3 210/5/3 209/5/3
f 212/5/3 210/5/3 211/5/3
f 213/5/3 210/5/3 212/5/3
f 214/5/3 210/5/3 213/5/3
f 216/5/3 213/5/3 212/5/3
f 217/5/3 213/5/3 216/5/3
f 219/5/3 216/5/3 215/5/3
f 219/5/3 218/5/3 217/5/3
f 219/5/3 217/5/3 216/5/3
f 220/5/3 218/5/3 219/5/3
f 223/2/3 222/2/3 221/2/3
f 224/2/3 222/2/3 223/2/3
f 227/2/3 226/2/3 225/2/3
f 228/2/3 226/2/3 227/2/3
f 231/2/3 230/2/3 229/2/3
f 232/2/3 230/2/3 231/2/3
f 235/2/3 234/2/3 233/2/3
f 236/2/3 234/2/3 235/2/3
f 239/4/3 238/4/3 237/4/3
f 240/4/3 238/4/3 239/4/3
f 241/4/3 238/4/3 240/4/3
f 243/4/3 242/4/3 241/4/3
f 244/4/3 242/4/3 243/4/3
f 247/4/3 245/4/3 244/4/3
f 248/4/3 245/4/3 247/4/3
f 251/4/3 247/4/3 246/4/3
f 252/4/3 247/4/3 251/4/3
f 253/4/3 250/4/3 249/4/3
f 253/4/3 251/4/3 250/4/3
f 254/4/3 251/4/3 253/4/3
f 257/3/3 256/3/3 255/3/3
f 258/3/3 256/3/3 257/3/3
f 261/3/3 260/3/3 259/3/3
f 262/3/3 260/3/3 261/3/3
f 265/2/3 264/2/3 263/2/3
f 266/2/3 264/2/3 265/2/3
f 269/2/3 268/2/3 267/2/3
f 270/2/3 268/2/3 269/2/3
f 273/2/3 272/2/3 271/2/3
f 274/2/3 272/2/3 273/2/3
f 277/2/3 276/2/3 275/2/3
f 278/2/3 276/2/3 277/2/3
f 281/5/3 280/5/3 279/5/3
f 282/5/3 280/5/3 281/5/3
f 285/5/3 284/5/3 283/5/3
f 286/5/3 284/5/3 285/5/3
f 293/5/3 288/5/3 287/5/3
f 294/5/3 288/5/3 293/5/3
f 295/5/3 291/5/3 290/5/3
f 295/5/3 290/5/3 289/5/3
f 296/5/3 294/5/3 293/5/3
f 296/5/3 295/5/3 294/5/3
f 296/5/3 293/5/3 292/5/3
f 297/5/3 291/5/3 295/5/3
f 297/5/3 295/5/3 296/5/3
f 300/5/3 299/5/3 298/5/3
f 301/5/3 299/5/3 300/5/3
f 305/3/3 303/3/3 302/3/3
f 306/5/3 304/5/3 303/5/3
f 306/3/3 303/3/3 305/3/3
f 307/5/3 304/5/3 306/5/3
f 308/5/4 309/5/4 310/5/4
f 310/5/4 309/5/4 311/5/4
f 312/5/4 313/5/4 314/5/4
f 314/5/4 313/5/4 315/5/4
f 316/3/4 317/3/4 318/3/4
f 318/3/4 317/3/4 319/3/4
f 320/4/4 321/4/4 322/4/4
f 322/4/4 321/4/4 323/4/4
f 323/4/4 321/4/4 324/4/4
f 324/4/4 325/4/4 326/4/4
f 326/4/4 325/4/4 327/4/4
f 327/4/4 328/4/4 330/4/4
f 330/4/4 328/4/4 331/4/4
f 329/4/4 330/4/4 334/4/4
f 334/4/4 330/4/4 335/4/4
f 332/4/4 333/4/4 336/4/4
f 333/4/4 334/4/4 336/4/4
f 336/4/4 334/4/4 337/4/4
f 338/2/4 339/2/4 340/2/4
f 340/2/4 339/2/4 341/2/4
f 341/2/4 339/2/4 342/2/4
f 342/2/4 339/2/4 343/2/4
f 343/2/4 344/2/4 345/2/4
f 342/2/4 343/2/4 345/2/4
f 345/2/4 344/2/4 346/2/4
f 347/2/4 348/2/4 349/2/4
f 349/2/4 348/2/4 350/2/4
f 351/2/4 352/2/4 354/2/4
f 354/2/4 352/2/4 355/2/4
f 353/2/4 354/2/4 358/2/4
f 355/2/4 356/2/4 358/2/4
f 354/2/4 355/2/4 358/2/4
f 358/2/4 356/2/4 359/2/4
f 359/2/4 356/2/4 360/2/4
f 357/2/4 358/2/4 361/2/4
f 358/2/4 359/2/4 361/2/4
f 361/2/4 359/2/4 362/2/4
f 363/2/4 364/2/4 365/2/4
f 365/2/4 364/2/4 366/2/4
f 367/2/4 368/2/4 369/2/4
f 369/2/4 368/2/4 370/2/4
f 371/3/4 372/3/4 373/3/4
f 373/3/4 372/3/4 374/3/4
f 375/3/4 376/3/4 377/3/4
f 377/3/4 376/3/4 378/3/4
f 378/3/4 376/3/4 379/3/4
f 380/5/4 381/5/4 382/5/4
f 382/5/4 381/5/4 383/5/4
f 383/5/4 381/5/4 384/5/4
f 384/5/4 381/5/4 385/5/4
f 383/5/4 384/5/4 387/5/4
f 387/5/4 384/5/4 388/5/4
f 386/5/4 387/5/4 390/5/4
f 388/5/4 389/5/4 390/5/4
f 387/5/4 388/5/4 390/5/4
f 390/5/4 389/5/4 391/5/4
f 396/5/5 393/5/5 392/5/5
f 397/5/5 393/5/5 396/5/5
f 398/5/5 395/5/5 394/5/5
f 399/5/5 395/5/5 398/5/5
f 400/5/5 396/5/5 392/5/5
f 401/3/5 397/3/5 396/3/5
f 401/5/5 396/5/5 400/5/5
f 402/3/5 397/3/5 401/3/5
f 403/3/5 397/3/5 402/3/5
f 404/3/5 399/3/5 398/3/5
f 405/3/5 399/3/5 404/3/5
f 406/5/5 395/5/5 399/5/5
f 406/3/5 399/3/5 405/3/5
f 407/5/5 395/5/5 406/5/5
f 408/7/5 401/7/5 400/7/5
f 409/6/5 402/6/5 401/6/5
f 409/7/5 401/7/5 408/7/5
f 410/6/5 402/6/5 409/6/5
f 412/5/5 405/5/5 404/5/5
f 412/6/5 406/6/5 405/6/5
f 413/7/5 407/7/5 406/7/5
f 413/6/5 406/6/5 412/6/5
f 414/7/5 407/7/5 413/7/5
f 415/5/5 412/5/5 404/5/5
f 415/5/5 413/5/5 412/5/5
f 415/5/5 414/5/5 413/5/5
f 416/5/5 414/5/5 415/5/5
f 417/3/5 410/3/5 409/3/5
f 417/5/5 409/5/5 408/5/5
f 418/5/5 411/5/5 410/5/5
f 418/3/5 410/3/5 417/3/5
f 419/3/5 416/3/5 415/3/5
f 420/5/5 414/5/5 416/5/5
f 420/3/5 416/3/5 419/3/5
f 421/5/5 417/5/5 408/5/5
f 421/5/5 418/5/5 417/5/5
f 422/5/5 411/5/5 418/5/5
f 422/5/5 418/5/5 421/5/5
f 423/5/5 420/5/5 419/5/5
f 424/5/5 414/5/5 420/5/5
f 424/5/5 420/5/5 423/5/5
f 427/4/5 426/4/5 425/4/5
f 428/4/5 426/4/5 427/4/5
f 431/4/5 430/4/5 429/4/5
f 432/4/5 430/4/5 431/4/5
f 435/2/5 434/2/5 433/2/5
f 436/2/5 435/2/5 433/2/5
f 437/2/5 435/2/5 436/2/5
f 438/2/5 435/2/5 437/2/5
f 439/2/5 435/2/5 438/2/5
f 442/5/5 441/5/5 440/5/5
f 443/5/5 441/5/5 442/5/5
f 447/3/5 443/3/5 442/3/5
f 448/3/5 443/3/5 447/3/5
f 449/2/5 445/2/5 444/2/5
f 450/2/5 445/2/5 449/2/5
f 451/2/5 445/2/5 450/2/5
f 452/3/5 451/3/5 450/3/5
f 453/3/5 451/3/5 452/3/5
f 454/2/5 453/2/5 452/2/5
f 455/2/5 453/2/5 454/2/5
f 456/3/5 448/3/5 447/3/5
f 456/3/5 447/3/5 446/3/5
f 457/3/5 448/3/5 456/3/5
f 458/3/5 448/3/5 457/3/5
f 459/3/5 458/3/5 457/3/5
f 460/3/5 458/3/5 459/3/5
f 461/5/5 460/5/5 459/5/5
f 462/5/5 460/5/5 461/5/5
f 465/3/5 464/3/5 463/3/5
f 466/3/5 464/3/5 465/3/5
f 467/5/6 468/5/6 469/5/6
f 469/5/6 468/5/6 470/5/6
f 471/5/6 472/5/6 477/5/6
f 477/5/6 472/5/6 478/5/6
f 475/5/6 476/5/6 479/5/6
f 479/5/6 476/5/6 480/5/6
f 478/5/6 472/5/6 481/5/6
f 473/5/6 474/5/6 482/5/6
f 482/5/6 474/5/6 483/5/6
f 478/5/6 481/5/6 485/5/6
f 483/5/6 484/5/6 485/5/6
f 482/5/6 483/5/6 485/5/6
f 481/5/6 482/5/6 485/5/6
f 485/5/6 484/5/6 486/5/6
f 486/5/6 484/5/6 487/5/6
f 487/5/6 484/5/6 488/5/6
f 486/5/6 487/5/6 489/5/6
f 486/5/6 489/5/6 490/5/6
f 490/5/6 489/5/6 491/5/6
f 492/3/6 493/3/6 494/3/6
f 494/3/6 493/3/6 495/3/6
f 496/2/6 497/2/6 500/2/6
f 500/2/6 497/2/6 501/2/6
f 498/2/6 499/2/6 505/2/6
f 505/2/6 499/2/6 506/2/6
f 502/2/6 503/2/6 507/2/6
f 507/2/6 503/2/6 508/2/6
f 504/4/6 505/4/6 510/4/6
f 510/4/6 505/4/6 511/4/6
f 508/4/6 509/4/6 514/4/6
f 514/4/6 509/4/6 515/4/6
f 511/2/6 512/2/6 516/2/6
f 516/2/6 512/2/6 517/2/6
f 513/2/6 514/2/6 518/2/6
f 518/2/6 514/2/6 519/2/6
f 520/2/6 521/2/6 525/2/6
f 522/2/6 523/2/6 525/2/6
f 521/2/6 522/2/6 525/2/6
f 525/2/6 523/2/6 526/2/6
f 524/4/6 525/4/6 528/4/6
f 528/4/6 525/4/6 529/4/6
f 526/4/6 527/4/6 530/4/6
f 530/4/6 527/4/6 531/4/6
f 529/2/6 530/2/6 532/2/6
f 532/2/6 530/2/6 533/2/6
f 533/2/6 530/2/6 534/2/6
f 534/2/6 530/2/6 535/2/6
f 529/2/6 532/2/6 536/2/6
f 536/2/6 532/2/6 537/2/6
f 533/2/6 534/2/6 538/2/6
f 538/2/6 534/2/6 539/2/6
f 535/2/6 530/2/6 540/2/6
f 540/2/6 530/2/6 541/2/6
f 542/4/6 543/4/6 544/4/6
f 544/4/6 543/4/6 545/4/6
f 546/3/6 547/3/6 550/3/6
f 550/3/6 547/3/6 551/3/6
f 548/3/6 549/3/6 552/3/6
f 552/3/6 549/3/6 553/3/6
f 546/3/6 550/3/6 554/3/6
f 551/3/6 547/3/6 555/3/6
f 548/3/6 552/3/6 556/3/6
f 553/3/6 549/3/6 557/3/6
f 557/3/6 549/3/6 558/3/6
f 546/3/6 554/3/6 559/3/6
f 554/3/6 555/3/6 559/3/6
f 555/3/6 547/3/6 560/3/6
f 559/3/6 555/3/6 560/3/6
f 548/3/6 556/3/6 561/3/6
f 556/3/6 557/3/6 561/3/6
f 561/3/6 557/3/6 562/3/6
f 563/2/6 564/2/6 567/2/6
f 567/2/6 564/2/6 568/2/6
f 565/2/6 566/2/6 569/2/6
f 569/2/6 566/2/6 570/2/6
f 571/5/6 572/5/6 575/5/6
f 575/5/6 572/5/6 576/5/6
f 573/5/6 574/5/6 577/5/6
f 577/5/6 574/5/6 578/5/6
f 579/2/6 580/2/6 583/2/6
f 583/2/6 580/2/6 584/2/6
f 581/2/6 582/2/6 585/2/6
f 585/2/6 582/2/6 586/2/6
f 587/5/6 588/5/6 591/5/6
f 589/5/6 590/5/6 594/5/6
f 591/5/6 592/5/6 595/5/6
f 587/5/6 591/5/6 595/5/6
f 595/5/6 592/5/6 596/5/6
f 593/5/6 594/5/6 597/5/6
f 594/5/6 590/5/6 598/5/6
f 597/5/6 594/5/6 598/5/6
